0
SECTION
2
HEADER
0
ENDSEC
0
SECTION
2
TABLES
0
TABLE
2
LAYER
70
3
0
LAYER
2
HV_CABLE_ROUTE
70
0
62
5
6
CONTINUOUS
0
LAYER
2
JOINT_BAY
70
0
62
1
6
CONTINUOUS
0
LAYER
2
LINK_BOX
70
0
62
6
6
CONTINUOUS
0
ENDTAB
0
ENDSEC
0
SECTION
2
ENTITIES
0
LWPOLYLINE
8
HV_CABLE_ROUTE
90
5
70
0
10
0
20
0
10
250
20
0
10
400
20
100
10
700
20
100
10
900
20
260
0
CIRCLE
8
JOINT_BAY
10
400
20
100
40
18
0
CIRCLE
8
LINK_BOX
10
700
20
100
40
14
0
TEXT
8
JOINT_BAY
10
420
20
120
40
18
1
JB-01
0
TEXT
8
LINK_BOX
10
720
20
120
40
18
1
LB-01
0
ENDSEC
0
